<svg width="50" height="50" viewBox="0 0 50 50" fill="none" xmlns="http://www.w3.org/2000/svg">
<g id="Frame" clip-path="url(#clip0_1_746)">
<g id="Group">
<path id="Vector" d="M25.0024 47.2006L34.9076 44.6992C40.5614 40.0045 44.1626 32.9232 44.1626 25.0001C44.1626 12.779 35.5971 2.5586 24.1419 0.0145569C10.7321 0.466803 0 11.4801 0 25C0 31.9445 2.83203 38.2272 7.40352 42.7574L25.0024 47.2006Z" fill="#CBE2FF"/>
<path id="Vector_2" d="M43.644 25C43.644 33.1948 39.7005 40.4679 33.6083 45.0272L42.5958 42.7576C47.1675 38.2273 50 31.9447 50 25C50 11.1929 38.8072 0 25 0C23.9235 0 22.8627 0.0681641 21.822 0.200195C34.1286 1.76152 43.644 12.2695 43.644 25Z" fill="#BED8FB"/>
<path id="Vector_3" d="M31.213 9.46798C31.213 8.19113 30.1779 7.15607 28.9011 7.15607H20.9341C17.9955 7.15607 15.6133 9.53829 15.6133 12.4769V18.3844H34.3837V12.5607C34.3837 11.2838 33.3486 10.2487 32.0718 10.2487H31.9938C31.8913 10.2488 31.7898 10.2286 31.695 10.1893C31.6003 10.1501 31.5142 10.0926 31.4417 10.0201C31.3692 9.9476 31.3117 9.86152 31.2724 9.76679C31.2332 9.67206 31.213 9.57052 31.213 9.46798Z" fill="#365E7D"/>
<path id="Vector_4" d="M32.0718 10.2487H31.9939C31.7868 10.2487 31.5882 10.1664 31.4417 10.02C31.2953 9.87357 31.213 9.67496 31.213 9.46786C31.213 8.191 30.178 7.15594 28.9011 7.15594H28.0276V18.3843H34.3836V12.5605C34.3837 11.2839 33.3486 10.2487 32.0718 10.2487Z" fill="#2B4D66"/>
<path id="Vector_5" d="M41.5084 36.3628C40.8834 35.7453 40.1205 35.2852 39.2828 35.0205L32.4575 32.8596L25.0016 32.5976L17.5426 32.8596L10.7173 35.0205C8.40835 35.7516 6.83911 37.8943 6.83911 40.3163V42.181C11.213 46.8028 17.3324 49.756 24.1421 49.9856C31.7718 48.291 38.1196 43.1911 41.5084 36.3628Z" fill="#4A80AA"/>
<path id="Vector_6" d="M43.161 42.1809V40.3162C43.161 38.6037 42.3758 37.0315 41.1 35.9985C37.4758 43.3839 30.3166 48.72 21.8279 49.799C22.8652 49.9307 23.9098 49.9978 24.9554 49.9999C25.9613 49.9986 26.9663 49.9405 27.9656 49.8259C33.9256 49.1216 39.2434 46.3206 43.161 42.1809Z" fill="#407093"/>
<path id="Vector_7" d="M25.5661 49.6258C27.0787 46.6228 31.0175 38.0958 29.8944 32.7694L25.0017 30.8652L20.1044 32.7695C18.9466 38.2603 23.1679 47.1521 24.5654 49.8877C24.9008 49.8072 25.2344 49.7199 25.5661 49.6258Z" fill="#E4F6FF"/>
<path id="Vector_8" d="M28.1443 47.245L26.1605 39.4406H23.8395L21.8606 47.2237L24.3077 49.948C24.9259 49.8064 25.5387 49.6417 26.1446 49.4542L28.1443 47.245Z" fill="#E28086"/>
<path id="Vector_9" d="M24.3458 49.9907C24.5485 49.996 24.7515 49.9996 24.9553 50C25.1912 49.9996 25.4262 49.9955 25.6606 49.989L26.921 48.5965C25.9212 48.9473 24.9 49.2336 23.8635 49.4538L24.3458 49.9907Z" fill="#DD636E"/>
<path id="Vector_10" d="M29.1772 32.0491V27.6481H20.8198V32.0491C20.8198 34.3569 24.9985 36.8778 24.9985 36.8778C24.9985 36.8778 29.1772 34.3569 29.1772 32.0491Z" fill="#FFDDCE"/>
<path id="Vector_11" d="M34.3837 17.6092H32.7861C31.8977 17.6092 31.1774 16.889 31.1774 16.0005V15.1201C31.1774 13.9628 30.0451 13.1445 28.9463 13.5077C26.3835 14.3548 23.6163 14.355 21.0534 13.5083L21.0504 13.5073C19.9516 13.1443 18.8194 13.9626 18.8194 15.1198V16.0006C18.8194 16.8891 18.0992 17.6093 17.2107 17.6093H15.6133V20.2399C15.6133 20.9121 16.1582 21.4571 16.8305 21.4571C17.0426 21.4571 17.2151 21.6232 17.2285 21.8349C17.4852 25.9041 20.8647 29.1254 24.9985 29.1254C29.1323 29.1254 32.5119 25.9041 32.7686 21.8349C32.7819 21.6233 32.9545 21.4571 33.1666 21.4571C33.8388 21.4571 34.3838 20.9122 34.3838 20.2399V17.6092H34.3837Z" fill="#FFDDCE"/>
<path id="Vector_12" d="M32.7861 17.6092C31.8976 17.6092 31.1774 16.889 31.1774 16.0005V15.1201C31.1774 13.9628 30.0451 13.1445 28.9462 13.5077C28.6435 13.6074 28.337 13.6956 28.0276 13.7721V22.4608C27.9848 25.2877 26.4358 27.7481 24.1482 29.0778C24.4305 29.1089 24.7143 29.1248 24.9984 29.1252C29.1322 29.1252 32.5118 25.9039 32.7684 21.8348C32.7818 21.6232 32.9543 21.4569 33.1665 21.4569C33.8386 21.4569 34.3836 20.912 34.3836 20.2398V17.6091L32.7861 17.6092Z" fill="#FFCBBE"/>
<g id="Group_2">
<path id="Vector_13" d="M20.8196 30.8652L17.5425 33.528L20.9792 37.7773C21.181 37.9738 21.4485 38.0885 21.73 38.0992C22.0115 38.11 22.2869 38.0159 22.5031 37.8354L25.0876 35.6765L20.8196 30.8652ZM29.1786 30.8652L25.0876 35.6765L27.5167 37.7534C27.7315 37.9371 28.0069 38.0343 28.2894 38.0261C28.5719 38.0179 28.8413 37.9049 29.0451 37.7092L32.4572 33.528L29.1786 30.8652Z" fill="#F4FBFF"/>
</g>
<path id="Vector_14" d="M20.8197 30.8652L16.0095 33.2284C15.9226 33.2711 15.845 33.3308 15.7814 33.4038C15.7178 33.4769 15.6693 33.5619 15.639 33.6539C15.6086 33.7459 15.5968 33.843 15.6045 33.9396C15.6121 34.0362 15.6389 34.1303 15.6833 34.2164L16.6257 36.0436C16.7447 36.2743 16.7872 36.5368 16.7472 36.7933C16.7071 37.0498 16.5865 37.2869 16.4028 37.4703C16.2073 37.6654 16.0119 37.8605 15.8165 38.0556C15.4905 38.381 15.3734 38.8617 15.517 39.2994C16.6548 42.7679 22.1307 48.0717 24.2031 49.9906C24.3425 49.9943 24.4821 49.9969 24.622 49.9984C23.1192 47.0753 17.7937 35.9696 20.8197 30.8652ZM33.5956 37.4702C33.4119 37.2868 33.2912 37.0497 33.2512 36.7932C33.2111 36.5367 33.2537 36.2742 33.3727 36.0435L34.3151 34.2163C34.3595 34.1302 34.3863 34.0361 34.3939 33.9395C34.4016 33.8429 34.3898 33.7458 34.3594 33.6538C34.3291 33.5618 34.2806 33.4768 34.217 33.4037C34.1534 33.3307 34.0758 33.271 33.9888 33.2283L29.1787 30.8652C32.2039 35.9683 26.8821 47.0692 25.3776 49.9961C25.519 49.9937 25.6601 49.9901 25.801 49.9855C27.8776 48.0621 33.3447 42.7647 34.4814 39.2995C34.625 38.8618 34.5079 38.3811 34.1819 38.0557L33.5956 37.4702Z" fill="#365E7D"/>
<path id="Vector_15" d="M25.0876 35.6765L22.5427 37.8018L23.8394 39.4406H26.1604L27.4572 37.7052L25.0876 35.6765Z" fill="#DD636E"/>
</g>
</g>
<defs>
<clipPath id="clip0_1_746">
<rect width="50" height="50" fill="white"/>
</clipPath>
</defs>
</svg>
